<?xml version="1.0" standalone="no"?>
<!DOCTYPE svg PUBLIC "-//W3C//DTD SVG 20010904//EN"
 "http://www.w3.org/TR/2001/REC-SVG-20010904/DTD/svg10.dtd">
<svg version="1.0" xmlns="http://www.w3.org/2000/svg"
 width="179.000000pt" height="179.000000pt" viewBox="0 0 179.000000 179.000000"
 preserveAspectRatio="xMidYMid meet">
<metadata>
Created by potrace 1.14, written by Peter Selinger 2001-2017
</metadata>
<g transform="translate(0.000000,179.000000) scale(0.100000,-0.100000)"
fill="#000000" stroke="none">
<path d="M1245 1217 c0 -93 -4 -122 -24 -172 -19 -49 -26 -96 -37 -257 -16
-243 -41 -352 -92 -410 -17 -20 -47 -24 -57 -8 -4 6 -15 68 -25 138 -26 180
-72 292 -120 292 -39 0 -92 -127 -110 -263 -18 -142 -21 -157 -37 -173 -15
-14 -1 -31 148 -180 182 -182 157 -170 279 -132 212 66 399 224 509 430 40 74
83 200 94 273 l7 41 -268 267 -267 267 0 -113z"/>
</g>
</svg>
